<?xml version="1.0" encoding="UTF-8"?><svg id="Capa_1" xmlns="http://www.w3.org/2000/svg" viewBox="0 0 577.472 527.091"><path fill="#ffffff" d="m483.993,250.517c-.208-.637-.442-1.359-.56-2.162-4.003-27.227-26.672-48.712-53.903-51.085-3.387-.296-6.783-.409-10.379-.529-1.707-.057-3.441-.115-5.213-.193l-2.39-.106v-23.631c.004-14.472.005-28.944-.005-43.417-.005-9.509-4.397-13.939-13.819-13.94l-58.86-.005-58.611.004c-9.595.002-13.877,4.277-13.885,13.86-.012,14.189-.01,28.377-.007,42.566l.002,24.938h-7.736c-10.507,0-21.015-.009-31.522-.018-10.506-.009-21.011-.018-31.517-.018-13.504,0-27.009.015-40.513.065-35.142.127-61.663,26.752-61.689,61.932l-.016,16.001c-.027,24.646-.055,50.131.101,75.19.037,5.869.685,11.319,1.926,16.197,7.015,27.582,30.704,45.412,60.349,45.428,28.743.016,57.495.021,86.238.021l115.069-.009c6.702,0,13.407.01,20.11.02,6.701.01,13.401.02,20.1.02,8.49,0,16.976-.016,25.466-.067,28.597-.172,52.521-18.501,59.528-45.607.491-1.897.917-3.871,1.331-5.779.177-.819.354-1.639.537-2.457v-106.812c-.043-.135-.087-.27-.131-.405Zm-193.735-111.279h97.411v57.329h-97.411v-57.329Zm-36.804,248.46c-.692.033-1.278.068-1.796.099-1.024.06-1.8.104-2.574.104,0,0-44.172.021-55.046.021-12.691,0-25.38-.007-38.073-.032-18.784-.037-33.188-10.536-37.591-27.401-.839-3.216-1.288-6.592-1.298-9.766-.103-36.383-.111-65.856-.028-92.756.065-20.829,15.355-36.812,35.568-37.175,12.437-.224,25.993-.328,42.66-.328,9.192,0,18.382.03,27.574.06,9.186.031,18.371.06,27.558.06h.769c.648,0,1.181.153,1.697.3.203.058.438.126.724.195l4.434,1.062-3.278,3.168c-22.961,22.186-34.612,48.707-34.627,78.826-.016,30.593,11.414,56.521,34.942,79.268l4.151,4.012-5.767.283Zm73.213.613c-22.409-.015-43.49-8.786-59.36-24.701-15.894-15.938-24.619-37.088-24.572-59.553.1-46.242,37.847-83.863,84.144-83.863h.092c46.206.048,83.822,37.718,83.852,83.973.015,22.376-8.755,43.479-24.691,59.422-15.935,15.942-37.035,24.722-59.465,24.722Zm133.668-35.966c-.205,18.858-15.353,34.375-34.486,35.323-2.794.139-5.779.204-9.397.204-2.556,0-5.139-.032-7.773-.065-2.714-.033-5.482-.067-8.325-.067h-6.48l4.8-4.353c21.931-19.89,34.507-48.741,34.502-79.157-.005-30.46-12.652-59.391-34.699-79.375l-5.241-4.75,7.061.401c1.531.087,3.162.129,4.985.129,2.264,0,4.556-.065,6.772-.129,2.199-.063,4.473-.128,6.701-.128,5.061,0,11.061.282,17.183,2.371,14.482,4.94,24.293,18.352,24.414,33.373.298,37.115.292,67.69-.018,96.223Z"/><path fill="#ffffff" d="m166.779,178.1c6.528.06,13.115.09,19.578.091,6.462,0,12.982-.031,19.38-.091,7.366-.069,12.537-4.886,12.576-11.714.039-7.022-5.082-11.813-12.743-11.923-2.396-.034-4.792-.045-7.189-.045-1.946,0-3.894.007-5.84.013-1.952.007-3.906.014-5.944.014-2.016,0-4.033-.007-6.049-.013-2.01-.006-4.021-.013-6.031-.013-2.499,0-4.998.01-7.497.043-7.663.101-12.791,4.879-12.762,11.889.031,6.959,5.061,11.68,12.52,11.749Z"/><path fill="#ffffff" d="m368.934,262.044c-11.327-11.28-26.385-17.493-42.493-17.493-15.828.024-30.72,6.239-41.932,17.501-11.283,11.332-17.473,26.383-17.428,42.379.093,32.837,26.868,59.553,59.689,59.554h.045c32.889-.024,59.656-26.821,59.671-59.735.007-15.938-6.227-30.927-17.553-42.206Zm-42.17,78.287c-.275,0-.547-.003-.822-.009-9.62-.218-18.556-4.166-25.16-11.114-6.723-7.072-10.271-16.423-9.994-26.332.536-19.122,16.719-34.679,36.075-34.679.346,0,.691.005,1.039.015,19.367.548,35.315,17.321,34.827,36.627-.503,19.903-16.301,35.493-35.965,35.493Z"/></svg>