<?xml version="1.0" encoding="UTF-8"?><svg id="Capa_1" xmlns="http://www.w3.org/2000/svg" viewBox="0 0 577.472 527.091"><path fill="#ffffff" d="m288.53,448.912c-42.787,0-85.575,0-128.362,0-7.356,0-9.005-1.649-9.005-9.005-.002-49.766-.002-99.531,0-149.297,0-7.348,1.641-8.982,9.021-8.982,85.699-.001,171.399-.001,257.098,0,7.36,0,9.01,1.647,9.011,8.998.002,49.766.002,99.531,0,149.297,0,7.339-1.657,8.988-9.026,8.988-42.912.002-85.824,0-128.736,0Zm-113.744-155.457c1.522,1.323,2.299,2.069,3.147,2.725,36.026,27.851,72.078,55.668,108.041,83.599,2.306,1.791,3.674,1.436,5.744-.154,36.298-27.903,72.648-55.738,108.977-83.602.799-.613,1.479-1.382,2.73-2.567h-228.639Zm1.288,143.556h224.777c-.793-.752-1.099-1.132-1.484-1.396-27.809-18.977-55.636-37.93-83.417-56.948-1.814-1.242-3.011-.901-4.59.343-5.879,4.631-11.841,9.157-17.806,13.676-4.034,3.056-5.685,3.044-9.637.009-5.738-4.407-11.539-8.739-17.128-13.328-2.245-1.843-3.797-1.721-6.134-.113-22.294,15.338-44.678,30.547-67.036,45.792-5.541,3.778-11.081,7.557-17.543,11.963Zm-13.104-137.749v132.876c30.676-20.919,60.801-41.461,91.352-62.295-30.711-23.728-60.735-46.926-91.352-70.581Zm160.315,70.685c30.637,20.876,60.697,41.36,91.197,62.143v-132.025c-30.631,23.472-60.718,46.527-91.197,69.882Z"/><path fill="#ffffff" d="m270.825,137.886v-12.392c-3.564,0-7.002-.037-10.439.011-2.946.042-5.406-.69-6.786-3.6-1.377-2.902.109-5.019,1.836-7.091,9.266-11.114,18.514-22.243,27.811-33.331,3.657-4.362,7.246-4.416,10.86-.115,9.387,11.175,18.705,22.408,28.056,33.613,1.761,2.11,3.047,4.314,1.597,7.132-1.379,2.678-3.734,3.433-6.549,3.392-3.359-.049-6.719-.012-10.397-.012v12.392h4.381c25.578,0,51.155-.004,76.733.003,6.568.002,8.412,1.859,8.413,8.473.005,38.174.006,76.348,0,114.522-.001,6.512-1.887,8.35-8.541,8.35-66.004.003-132.007.003-198.011,0-6.879,0-8.672-1.775-8.673-8.589-.004-38.049-.004-76.099,0-114.148,0-6.839,1.779-8.608,8.647-8.609,25.453-.004,50.906-.002,76.36-.002h4.704Zm101.908,119.634c-.78-.896-1.03-1.303-1.385-1.575-20.104-15.391-40.198-30.797-60.395-46.064-.898-.679-3.101-.638-4.103,0-4.518,2.878-8.807,6.112-13.206,9.178-4.259,2.969-5.571,2.962-9.729.044-4.185-2.937-8.467-5.751-12.491-8.896-2.214-1.73-3.707-1.436-5.805.179-19.17,14.766-38.42,29.427-57.639,44.13-1.002.767-1.924,1.639-3.514,3.002h168.266Zm-65.826-107.897c-.198.614-.333.843-.336,1.073-.038,3.118-.036,6.236-.085,9.353-.08,5.124-2.204,7.317-7.275,7.356-6.987.053-13.975.053-20.962,0-5.081-.039-7.213-2.225-7.277-7.347-.042-3.439-.008-6.879-.008-10.336h-65.039c1.398,1.164,2.168,1.9,3.028,2.508,25.565,18.062,51.159,36.082,76.675,54.211,2.283,1.622,3.82,1.728,6.174.053,25.608-18.214,51.306-36.3,76.971-54.434.842-.595,1.59-1.325,2.911-2.439h-64.778Zm-48.15,51.716c-22.198-15.657-43.716-30.835-65.713-46.351v96.599c22.086-16.888,43.614-33.35,65.713-50.248Zm125.661,50.215v-96.561c-22.141,15.633-43.715,30.865-65.669,46.366,22.17,16.946,43.691,33.396,65.669,50.194Zm-89.681-95.844c.062-1.29.176-2.597.178-3.904.016-9.464.008-18.927.009-28.391.001-7.913,1.214-9.155,9.241-9.512.433-.019.858-.223,1.842-.493-5.873-7.042-11.453-13.733-17.282-20.722-5.995,7.218-11.509,13.857-17.374,20.92,1.332.17,1.917.291,2.506.313,7.17.264,8.67,1.803,8.673,8.948.004,8.966,0,17.931,0,26.897,0,1.937,0,3.874,0,5.946h12.206Z"/><path fill="#ffffff" d="m157.38,120.092h11.111v88.947h-11.111v-88.947Z"/><path fill="#ffffff" d="m408.966,120.094h11.107v88.942h-11.107v-88.942Z"/><path fill="#ffffff" d="m133.414,108.109h11.124v65.002h-11.124v-65.002Z"/><path fill="#ffffff" d="m444.046,173.236h-11.132v-65.002h11.132v65.002Z"/><path fill="#ffffff" d="m144.533,197.202h-11.115v-11.11h11.115v11.11Z"/><path fill="#ffffff" d="m444.058,215.149h-11.156v-11.11h11.156v11.11Z"/></svg>