<?xml version="1.0" encoding="UTF-8"?><svg id="Capa_1" xmlns="http://www.w3.org/2000/svg" viewBox="0 0 577.472 527.091"><path fill="#ffffff" d="m230.866,151.55c-1.036,2.706-1.554,5.296-2.907,7.326-2.083,3.129-1.078,4.937,1.353,7.263,7.622,7.315,15.001,14.885,22.464,22.359.92.92,1.787,1.892,2.791,2.971-3.023,2.886-5.867,5.603-9.8,9.366-2.009-2.442-3.996-5.233-6.343-7.654-6.353-6.533-12.813-12.961-19.367-19.282-.856-.825-2.981-1.501-3.827-1.015-17.623,9.958-41.144,1.332-46.958-21.312h-74.222c-6.734,0-8.7-1.977-8.711-8.721-.011-15.455-.011-30.9,0-46.356.011-6.237,2.093-8.341,8.288-8.341,53.618-.011,107.236-.011,160.855,0,6.417,0,8.436,2.061,8.447,8.595.011,15.455.011,30.9,0,46.356-.011,6.438-2.072,8.457-8.573,8.478-7.781-.021-15.561-.032-23.49-.032Zm19.208-50.468H98.332v37.645h69.93c5.444-15.762,15.54-24.727,29.251-25.097,17.57-.476,28.257,8.806,33.332,25.033h19.229v-37.581Zm-50.658,63.143c10.318.085,18.997-8.415,19.103-18.711.116-10.561-8.415-19.261-18.912-19.303-10.371-.042-18.965,8.373-19.103,18.701-.148,10.54,8.373,19.229,18.912,19.314Z"/><path fill="#ffffff" d="m356.022,299.726c0-11.477.036-22.965-.012-34.442-.036-9.16,3.619-16.254,11.835-20.469,8.252-4.228,16.158-2.926,23.479,2.556,15.382,11.524,30.835,22.977,46.122,34.645,12.575,9.59,12.587,25.796,0,35.397-15.286,11.668-30.74,23.109-46.122,34.645-7.309,5.482-15.227,6.807-23.479,2.592-8.204-4.204-11.883-11.298-11.847-20.469.06-11.501.024-22.977.024-34.454Zm14.331-.084c0,11.345.048,22.679-.024,34.024-.024,3.523.657,6.521,4.096,8.252,3.296,1.66,6.007.418,8.67-1.576,15.024-11.298,30.095-22.523,45.106-33.845,5.744-4.323,5.78-9.208.084-13.495-15.012-11.309-30.083-22.535-45.095-33.845-2.818-2.126-5.649-3.344-9.052-1.493-3.201,1.732-3.81,4.634-3.786,7.978.036,11.321,0,22.655,0,34Z"/><path fill="#ffffff" d="m401.248,199.888c-24.757-2.221-47.519,3.678-67.57,18.308-29.832,21.783-43.184,51.818-42.205,88.398h-55.637v14.832h57.811c10.844,40.031,36.198,65.516,76.467,76.443v30.489h-185.693v-66.18h-14.701v66.527c-4.299,0-8.145-.012-11.99,0-7.094.024-9.47,2.341-9.506,9.291-.012,3.129,0,6.27,0,9.399.012,15.8,8.515,24.291,24.351,24.291h150.451c20.147,0,40.306.048,60.452-.012,13.674-.036,22.607-9.076,22.691-22.81.024-3.881.048-7.763-.012-11.644-.084-5.864-2.639-8.431-8.479-8.515-4.263-.06-8.527-.012-12.814-.012v-28.626c56.882,3.487,104.807-39.983,107.183-95.957,2.329-54.911-39.028-99.576-90.798-104.221Zm-9.423,243.434c0,2.46.12,4.681-.024,6.867-.287,4.24-2.902,6.795-7.153,7.118-1.338.108-2.687.036-4.025.036h-205.422c-11.787,0-13.352-1.72-12.408-14.02h229.032Zm-.084-57.634c-47.34-.191-85.926-38.67-85.866-85.627.06-48.247,38.562-86.463,86.953-86.332,46.802.131,85.114,39.111,84.994,86.511-.119,46.981-39.052,85.639-86.081,85.448Z"/><path fill="#ffffff" d="m168.26,372.98c-.905-.056-1.823-.337-2.727-.839-2.864-1.588-4.061-4.147-3.763-8.053.237-3.106.416-6.217.606-9.511l.267-4.531-29.255-1.769c-3.704-.226-7.407-.458-11.11-.703-18.964-1.248-31.504-15.383-30.495-34.375l.083-1.623c.246-4.804.987-19.236,1.878-35.653l.063-1.181-.132-.008c.243-3.652.487-7.276.728-10.805.363-6.519.735-13.048,1.099-19.168l.218.013.083-1.181c.429-6.17.773-11.023.962-13.695l.156-2.215c1.257-18.229,14.196-30.476,32.197-30.476.742,0,1.494.022,2.252.064,3.705.208,7.408.427,11.114.654l8.78.542,1.181.156,22.514,1.338c18.59,1.104,37.813,2.245,40.727,2.432,21.244,1.361,33.203,14.866,31.989,36.124-.626,10.958-1.18,19.995-1.745,28.442-.48,7.189-3.767,8.11-6.575,8.11-.22,0-.447-.007-.679-.021l-.194-.012c-3.04-.231-6.5-1.431-6.102-8.711.264-4.841.566-9.677.869-14.515.31-4.958.619-9.894.886-14.832.687-12.722-5.956-20.171-18.704-20.976-14.127-.891-28.256-1.77-42.385-2.632-5.585-.341-11.172-.673-16.758-1.005l-5.871-.349v.021s-3.914-.238-3.914-.238c-5.018-.306-10.039-.611-15.059-.909-.679-.041-1.341-.061-1.987-.061-11.703,0-18.295,6.449-19.061,18.649l-1.005,16.132.078.005c-1.415,22.761-2.792,45.447-4.092,67.445-.755,12.749,5.863,20.21,18.632,21.009,5.02.314,10.039.622,15.059.928l28.29,1.726c7.646.469,9.515,2.554,9.092,10.141-.058,1.058-.124,2.116-.21,3.482l-.15,2.395,1.995-1.232c.911-.603,3.1-2.036,3.1-2.036,3.678-2.409,7.1-4.65,10.34-7.08,3.383-2.537,6.532-3.719,9.91-3.719.3,0,.602.009.905.028.59.036,1.193.108,1.79.215.827.146,1.724.247,2.745.309,1.142.069,2.307.083,3.432.096l.823.008c8.683,0,15.978-6.095,17.346-14.49.44-2.702.611-5.49.776-8.185.101-1.654.216-3.528.401-5.317.469-4.551,2.589-6.763,6.481-6.763.215,0,.428.007.637.02l.203.013c4.203.324,6.437,3.009,6.112,7.364-.084,1.136-.16,2.278-.233,3.422-.356,5.452-.72,11.053-2.251,16.209-3.768,12.699-15.183,21.232-28.403,21.232-.613,0-1.232-.019-1.852-.056l-.962-.066c-.63-.038-1.237-.057-1.833-.057-5.353,0-9.882,1.566-14.25,4.93-4.159,3.203-8.627,6.152-12.947,9.005l-.429.283c-2.009,1.327-4.019,2.654-6.005,4.015-1.521,1.043-3.342,2.107-5.329,2.107-.11,0-.331-.013-.331-.013Z"/><path fill="#ffffff" d="m170.012,314.795c-1.153-.08-2.044-.395-2.455-.641-10.008-5.957-21.369-13.202-29.552-23.824-5.74-7.451-8.314-15.357-7.859-24.152l.037-.596c.632-10.323,5.353-16.513,9.2-19.888,5.109-4.481,11.883-6.783,18.584-6.316,4.683.327,9.079,1.988,12.71,4.806,1.299,1.009,2.947,1.261,3.814,1.322s2.152.015,3.31-.55c4.89-2.382,9.631-3.433,14.093-3.122,5.571.388,10.954,2.925,16.002,7.54,8.355,7.64,10.563,20.524,5.494,32.061-2.903,6.609-6.122,11.243-9.57,13.774-9.002,6.609-19.055,12.245-28.777,17.695l-2.925,1.641c-.217.122-.934.33-2.105.248Zm-12.737-65.144c-.89-.062-1.824-.045-2.776.052-6.065.614-10.456,4.043-12.699,9.917-3.4,8.902-1.926,17.638,4.043,23.966,5.027,5.328,10.834,9.937,16.45,14.395,1.701,1.35,3.4,2.7,5.078,4.067,1.017.831,2.314,1.081,3.223,1.144h0c.684.048,2.429.066,3.869-.788,1.251-.745,2.503-1.483,3.757-2.222,6.012-3.543,12.227-7.207,17.996-11.407,5.508-4.009,8.843-10.277,9.39-17.649.642-8.355-2.838-14.838-9.55-17.782-1.87-.821-3.578-1.276-5.222-1.39-5.683-.396-9.801,3.518-12.753,6.972-1.002,1.172-2.583,2.542-4.421,2.415-1.735-.121-3.511-1.564-5.001-4.064-2.82-4.731-6.65-7.297-11.385-7.627Z"/><path fill="#ffffff" d="m283.593,242.242c-1.557,0-2.921-.675-4.055-2.006-1.236-1.461-2.065-3.851-2.065-5.949-.104-49.678-.126-101.545-.066-158.565.01-11.737,8.662-20.281,20.571-20.314,8.86-.015,17.72-.02,26.576-.02,4.43,0,48.711.02,53.14.02l52.023-.005,26.013.005c13.65.011,21.806,8.088,21.817,21.606.021,30.045.021,60.091,0,90.135-.012,13.518-8.172,21.595-21.829,21.606,0,0-41.702.017-52.805.017-25.51,0-45.002-.026-63.202-.083-4.31,0-7.164,1.266-9.849,4.37-10.618,12.315-21.527,24.736-32.078,36.748l-7.73,8.804c-2.057,2.343-4.351,3.633-6.46,3.633Zm16.576-173.703c-7.659,0-9.642,2.007-9.642,9.764v139.865l.198-.227c3.166-3.623,6.256-7.14,9.29-10.59l.074-.085c6.964-7.923,13.541-15.407,20.035-23.045,5.031-5.913,11.103-8.666,19.105-8.666h.145c16.112.066,33.86.097,55.854.097,11.295,0,22.588-.007,33.881-.015l25.815-.014c7.351,0,9.476-2.138,9.476-9.531.013-29.345.013-58.677,0-88.021,0-7.393-2.122-9.531-9.463-9.531h-154.77Z"/><path fill="#ffffff" d="m339.903,165.72c-2.211,0-3.59-1.269-4.214-3.88-2.899-12.151-5.858-24.661-9.046-38.245-.777-3.316.385-5.234,3.656-6.036,5.158-1.263,10.706-2.601,16.329-3.833.407-.09.838-.132,1.355-.132.462,0,.953.035,1.49.075.295.022.604.044.933.062.591-1.173,1.21-2.362,1.838-3.569,1.822-3.5,3.708-7.119,5.194-10.902.688-1.746.681-3.914.674-6.01-.003-.809-.006-1.614.027-2.401.021-.512-.062-1.062-.152-1.646-.12-.788-.24-1.58-.146-2.409.363-3.217,2.265-5.567,5.355-6.62.914-.312,1.824-.471,2.705-.471,2.087,0,4.006.892,5.551,2.578,5.545,6.058,7.938,13.304,7.112,21.537-.041.425-.089.851-.137,1.277l-.04.353c2.437-.576,10.626-2.514,13.453-3.179,1.214-.286,2.373-.43,3.446-.43,4.935,0,8.239,2.943,9.558,8.511l1.419,5.996c1.878,7.924,3.755,15.847,5.605,23.778,1.316,5.652-1.486,10.539-6.815,11.882-12.889,3.25-23.407,5.686-33.103,7.667-1.086.223-2.288.331-3.675.331-1.286,0-2.576-.09-3.823-.178-.99-.069-1.998-.139-2.965-.162-.295.159-.593.333-.896.51-1.113.653-2.182,1.279-3.416,1.608-4.239,1.128-8.55,2.117-12.719,3.073l-2.732.629c-.681.157-1.277.233-1.822.233Zm3.571-9.824l8.667-2.05-7.235-30.593-8.667,2.049,7.235,30.594Zm23.607-64.828c.62,5.81-.703,11.549-4.02,17.478-2.407,4.304-4.867,8.906-7.976,14.924-.35.677-.507,1.596-.374,2.186,1.736,7.736,3.533,15.324,5.343,22.555.123.494.729,1.184,1.3,1.477,2.077,1.068,4.351,1.61,6.755,1.61,1.41,0,2.91-.186,4.458-.552l10.377-2.454c6.169-1.457,12.339-2.915,18.506-4.381q2.146-.511,1.65-2.613c-2.253-9.555-4.513-19.108-6.774-28.661-.478-2.012-.656-2.012-1.013-2.012-.431,0-1.104.145-1.706.286l-7.641,1.792c-3.608.848-7.219,1.695-10.829,2.535-.8.187-1.538.281-2.193.281-1.452,0-2.572-.449-3.33-1.334-.906-1.061-1.196-2.675-.862-4.797.096-.602.198-1.203.302-1.805l.056-.328c.276-1.601.56-3.24.706-4.843.384-4.197-.488-7.849-2.734-11.343Z"/></svg>