<?xml version="1.0" encoding="utf-8"?>
<!-- Generator: Adobe Illustrator 27.3.1, SVG Export Plug-In . SVG Version: 6.00 Build 0)  -->
<svg version="1.1" id="Capa_1" xmlns="http://www.w3.org/2000/svg" xmlns:xlink="http://www.w3.org/1999/xlink" x="0px" y="0px"
	 viewBox="0 0 577.47 527.09" style="enable-background:new 0 0 577.47 527.09;" xml:space="preserve">
<g>
	<path fill="#ffffff" d="M376.4,441.99c-6-4.37-6.69-7.03-3.56-13.86c1.97-4.3,3.87-8.63,5.96-12.87c2.18-4.43,6.43-6.07,10.56-4.26
		c4.07,1.79,5.84,6.21,3.94,10.66c-2.25,5.26-4.6,10.49-7.24,15.56c-0.97,1.85-2.92,3.2-4.42,4.78
		C379.9,441.99,378.15,441.99,376.4,441.99z"/>
	<path  fill="#ffffff" d="M405.49,158.23c18.53-2.81,35.22,0.57,50.21,11.22c22.26,15.81,32.47,43.67,25.72,70.02
		c-6.81,26.54-29.01,46.05-56.03,49.16c-3.09,0.36-6.22,0.55-9.33,0.55c-23.46,0.04-46.93,0.02-70.39,0.02c-1.35,0-2.69,0-4.43,0
		c1.06,5.08-1.37,8.16-4.79,11.11c-38.02,32.91-75.96,65.91-113.95,98.86c-1.39,1.2-2.95,2.45-4.64,3.01
		c-3.04,1.01-5.94,0.29-8.21-2.14c-2.4-2.57-2.55-5.56-1.41-8.72c3-8.32,6.01-16.64,9.02-24.95c6.32-17.45,12.65-34.89,18.97-52.34
		c0.37-1.04,0.65-2.11,1.1-3.6c-8.11-1.08-15.96-2.13-23.82-3.18c-3.46-0.46-6.93-0.87-10.38-1.4c-6.91-1.07-9.62-6.47-6.37-12.59
		c0.58-1.1,1.17-2.2,1.74-3.3c0.04-0.08-0.06-0.23-0.23-0.76c-9.8,0-19.74,0.34-29.64-0.12c-6.67-0.31-13.49-1.04-19.89-2.84
		c-29.27-8.25-48.9-36.6-47.06-67.24c1.83-30.36,25.12-56.1,55.17-60.83c4.4-0.69,8.89-0.84,13.73-1.28
		c-4.53-26.89,1.56-50.99,19.93-71.43c12.79-14.22,28.88-22.8,47.77-25.8c37.73-6,77.13,14.94,90.96,56.17
		c16.45-6.7,32.79-6.62,48.51,2.1C393.49,126.66,402.44,140.32,405.49,158.23z M288.01,273.05c1.78,0.11,2.85,0.23,3.93,0.23
		c41.43,0.01,82.85,0.02,124.28-0.02c3.11,0,6.26-0.17,9.32-0.67c28.73-4.68,47.51-33.26,40.47-61.49
		c-7.05-28.27-36.53-44.75-64.07-35.32c-6.94,2.38-12.64-2.04-12.31-9.28c0.71-15.42-6.25-27.39-19.8-34.7
		c-13.52-7.29-27.12-6.37-39.99,2.21c-6.99,4.66-12.6,2.45-14.2-5.77c-6.86-35.25-40.16-58.81-74.77-52.89
		c-41.41,7.09-65.53,47.96-51.68,87.66c1.14,3.28,1.36,6.34-0.99,9.15c-2.49,2.98-5.74,2.73-9.25,2.45
		c-6.41-0.51-12.98-1.39-19.28-0.58c-24.13,3.13-42.77,25.64-42.1,50.07c0.7,25.51,20.07,46.94,44.96,48.64
		c14.04,0.96,28.18,0.34,42.27,0.6c2.63,0.05,4-0.89,5.25-3.1c10.21-17.99,20.64-35.86,30.75-53.91c2.68-4.79,6.19-6.47,11.56-6.25
		c20.94,0.85,41.9,1.44,62.85,2.02c3.83,0.11,7.26,0.68,9.21,4.41c2.05,3.94,0.34,7.13-2.03,10.3
		c-10.63,14.16-21.19,28.38-31.77,42.58C289.86,270.44,289.12,271.52,288.01,273.05z M216.57,291.47c1.69,0.29,3.02,0.56,4.36,0.74
		c8.9,1.2,17.8,2.33,26.69,3.6c7.91,1.13,10.33,5.3,7.58,12.9c-6.39,17.69-12.82,35.36-19.22,53.04c-0.66,1.84-1.26,3.69-1.89,5.54
		c0.17,0.11,0.34,0.22,0.52,0.33c27.19-23.64,54.38-47.28,82.02-71.32c-14.54-3.48-28.22-6.78-41.92-10.01
		c-8.67-2.04-10.86-7.68-5.59-14.75c9.98-13.4,20-26.78,30-40.17c0.78-1.04,1.52-2.11,2.7-3.75c-15.39-0.45-29.97-0.83-44.55-1.37
		c-2.57-0.1-3.97,0.65-5.27,2.94c-11.18,19.74-22.5,39.39-33.78,59.08C217.68,289.2,217.23,290.19,216.57,291.47z"/>
	<path fill="#ffffff"  d="M191.44,359.92c-0.22,0.67-0.56,2.13-1.15,3.47c-2.07,4.65-4.19,9.29-6.38,13.88c-2.33,4.9-6.62,6.74-10.92,4.82
		c-4.31-1.93-5.83-6.45-3.64-11.32c2.34-5.21,4.7-10.42,7.3-15.51c1.78-3.48,5.59-4.83,9.25-3.74
		C189.15,352.48,191.47,355.66,191.44,359.92z"/>
	<path fill="#ffffff" d="M318.64,380.55c0.16-0.56,0.41-1.92,0.95-3.14c2.17-4.88,4.38-9.75,6.69-14.56c2.24-4.66,6.53-6.42,10.73-4.55
		c4.12,1.84,5.78,6.43,3.77,11.04c-2.28,5.24-4.65,10.44-7.2,15.55c-1.83,3.66-5.37,5.09-9.05,4.08
		C320.88,387.98,318.62,385.06,318.64,380.55z"/>
	<path  fill="#ffffff" d="M364.4,316.81c-0.22,0.69-0.54,2.15-1.13,3.49c-2.11,4.76-4.26,9.51-6.5,14.22c-2.27,4.76-6.79,6.58-11.04,4.58
		c-4.06-1.91-5.53-6.45-3.46-11.11c2.32-5.21,4.66-10.43,7.23-15.52c1.75-3.48,5.23-4.85,8.78-3.95
		C361.91,309.44,364.33,312.42,364.4,316.81z"/>
	<path  fill="#ffffff" d="M430.96,310.58c6.08,0.98,9.94,6.17,7.93,11.28c-2.32,5.87-5.03,11.62-7.93,17.23c-1.98,3.84-6.56,4.97-10.33,3.11
		c-3.55-1.75-5.37-5.94-3.78-9.78c2.37-5.72,4.8-11.47,7.84-16.85C425.92,313.4,428.83,312.21,430.96,310.58z"/>
	<path fill="#ffffff" d="M408.03,360.05c6.32,0.77,10.28,6.09,8.17,11.37c-2.26,5.66-4.85,11.2-7.59,16.65c-2.07,4.12-6.59,5.47-10.52,3.56
		c-3.72-1.8-5.46-6.08-3.74-10.14c2.33-5.5,4.65-11.05,7.58-16.23C403.18,363.08,405.95,361.76,408.03,360.05z"/>
	<path fill="#ffffff" d="M145.7,423.45c0.17-0.58,0.4-1.95,0.95-3.18c2.18-4.89,4.39-9.77,6.71-14.6c2.23-4.64,6.66-6.38,10.82-4.43
		c3.99,1.87,5.66,6.35,3.74,10.78c-2.28,5.26-4.68,10.46-7.23,15.59c-1.83,3.68-5.47,5.25-9.03,4.27
		C148.03,430.89,145.71,427.9,145.7,423.45z"/>
	<path fill="#ffffff" d="M318.9,415.76c-0.16,0.55-0.36,1.8-0.85,2.92c-2.23,5-4.46,10.01-6.86,14.94c-2.22,4.57-6.74,6.23-10.88,4.2
		c-4-1.95-5.48-6.26-3.49-10.84c2.29-5.25,4.65-10.48,7.19-15.6c1.8-3.62,5.52-5.11,9.1-4.06
		C316.72,408.37,318.97,411.38,318.9,415.76z"/>
	<path fill="#ffffff" d="M201.08,138.02c0.83-25.62,22.75-47.06,48.54-47.47c5.5-0.09,9.06,2.82,9.26,7.55c0.21,4.92-3.19,8.18-8.83,8.46
		c-18.21,0.93-32.25,14.38-32.91,32.28c-0.22,6-4.19,9.88-8.58,9.63C203.56,148.19,200.87,144.44,201.08,138.02z"/>
</g>
</svg>
