<?xml version="1.0" encoding="UTF-8"?><svg id="Capa_1" xmlns="http://www.w3.org/2000/svg" viewBox="0 0 577.472 527.091"><path fill="#ffffff" d="m396.629,257.591h12.107c0,4.111-.013,7.948.003,11.785.021,5.125,2.291,8.914,6.987,10.995,4.853,2.15,9.357,1.262,13.093-2.456,2.82-2.806,5.362-5.891,7.93-8.743,8.983,8.99,17.277,17.289,26.458,26.476-2.554,2.196-5.403,4.4-7.963,6.9-4.542,4.437-5.623,8.984-3.411,13.856,2.331,5.134,6.481,7.322,12.047,7.162,3.472-.1,6.949-.019,10.636-.019v35.998c-3.438,0-7.003.081-10.564-.019-5.536-.156-9.766,1.891-12.085,7.074-2.217,4.955-1.128,9.45,3.313,13.9,2.465,2.471,5.082,4.79,7.329,6.896-8.719,8.714-17.068,17.059-26.139,26.125-1.983-2.237-4.333-5.144-6.952-7.785-4.24-4.275-8.814-5.27-13.606-3.069-4.962,2.279-7.199,6.283-7.09,11.711.072,3.593.014,7.189.014,10.97h-35.998c0-3.642-.048-7.335.011-11.026.087-5.417-2.102-9.497-7.126-11.67-5.202-2.251-9.774-.908-13.621,3.102-2.502,2.609-4.94,5.28-7.91,8.464-2.336-2.84-4.283-5.207-6.23-7.574-.313.144-.626.288-.939.433-.427,6.482-2.651,12.28-8.423,15.268-4.069,2.106-6.104,5.169-8.279,8.855-7.428,12.592-18.766,18.935-33.344,18.192-14.41-.734-24.89-8.124-31.218-21.129-1.027-2.111-2.164-3.522-4.434-4.538-10.054-4.502-13.452-16.566-7.525-25.916.462-.728.956-1.435.827-1.242-1.715-5.61-3.208-10.489-4.71-15.404-.454.416-1.447,1.26-2.366,2.179-11.054,11.038-22.063,22.122-33.185,33.092-1.451,1.431-3.337,2.622-5.24,3.361-24.539,9.522-49.09,19.012-73.697,28.355-11.734,4.456-23.311-3.698-22.498-15.728.148-2.193.863-4.41,1.658-6.486,9.275-24.234,18.585-48.455,27.995-72.636.783-2.012,2.089-3.985,3.612-5.521,16.102-16.241,32.271-32.416,48.504-48.525,1.821-1.807,2.34-3.227,1.352-5.793-5.616-14.584-6.211-29.691-4.136-45.015.114-.839.198-1.683.339-2.9-6.418,0-12.644.058-18.869-.013-9.986-.114-20.083.569-29.933-.676-16.686-2.109-28.676-15.308-30.471-31.82-1.713-15.758,7.687-30.942,22.971-37.105.688-.277,1.379-.547,1.493-.592,0-7.499-.718-14.759.13-21.831,2.983-24.897,21.964-45.307,46.268-50.509,25.135-5.38,50.368,5.181,63.689,26.913,1.676,2.735,3.094,3.14,6.168,2.629,20.441-3.392,36.823,3.485,48.856,20.349,1.549,2.171,3.179,2.955,5.716,3.335,7.143,1.069,14.283,2.299,21.301,3.979,2.622.628,4.056.121,5.819-1.649,22.133-22.229,44.273-44.45,66.534-66.551,17.981-17.851,45.486-19.361,64.785-3.759,22.62,18.287,24.399,51.254,3.675,72.197-21.888,22.119-43.939,44.078-66.041,65.983-2.356,2.334-2.794,4.256-1.996,7.455,1.655,6.637,2.621,13.446,3.857,20.186.199,1.086.328,2.184.526,3.526Zm-209.683-60.175c-.254-9.695,5.86-18.387,15.184-22.293,1.324-.555,2.939-2.033,3.177-3.315,2.53-13.607,9.448-24.271,20.804-32.114.772-.533,1.473-1.167,2.165-1.72-10.802-19.933-35.263-29.268-56.895-21.922-21.609,7.339-35.437,29.73-32.357,51.658.637,4.537,2.279,6.021,6.71,6.734,16.468,2.65,29.878,19.161,28.701,34.895h-11.465c-.267-1.576-.465-3.043-.769-4.488-2.588-12.309-13.907-20.619-26.112-19.19-12.642,1.48-21.9,12.416-21.318,25.183.592,12.976,11.239,22.684,25.049,22.691,53.229.026,106.458.011,159.687.009.75,0,1.504.033,2.248-.039,7.349-.708,12.707-4.339,15.557-11.177,2.802-6.722,1.693-13.082-3.064-18.524-4.853-5.552-11.108-7.575-18.278-5.529-8.442,2.409-12.462,8.572-13.434,17.062h-11.828c.52-10.973,5.261-19.186,14.163-25.214,1.433-.97,2.789-2.863,3.114-4.537,3.425-17.615-7.554-35.37-24.838-40.499-17.75-5.267-36.527,3.584-43.514,20.614-1.114,2.714-1.756,5.622-2.654,8.564,11.026,4.166,17.022,11.511,17.802,23.14h-11.614c-2.333-8.226-6.432-12.015-12.761-11.854-6.15.156-10.046,3.969-12.023,11.862h-11.436Zm107.787,168.13c1.284,0,2.462,0,3.64,0,6.999.006,14.001-.101,20.995.083,2.185.057,3.09-.631,4.233-2.508,4.336-7.118,8.388-14.571,13.769-20.851,8.114-9.469,17.274-18.038,25.951-27.027,12.682-13.137,20.47-28.529,21.31-47.02,2.096-46.118-29.18-87.524-74.139-98.143-3.556-.84-7.205-1.284-10.589-1.874.347,6.049.659,11.494.987,17.213.455.046,1.174.124,1.893.189,16.574,1.503,28.549,14.957,27.907,31.356-.625,15.962-13.843,28.427-30.38,28.564-8.623.072-17.247.014-25.871.014-1.186,0-2.372,0-3.705,0,0,5.569-.006,10.561.001,15.554.009,6.639,1.805,8.444,8.43,8.447,15.123.008,30.246-.046,45.369.026,8.289.039,15.185,5.221,17.427,12.841,3.429,11.653-5.091,23.032-17.506,23.102-19.122.107-38.244.027-57.367.033-5.464.002-8.253,1.988-8.323,5.895-.072,4.022,2.811,6.097,8.494,6.105,2.75.004,5.499-.01,8.249.003,11.705.056,19.18,7.526,19.219,19.255.031,9.372.006,18.743.006,28.742Zm-100.14-119.848c-4.484,23.488-1.327,45.079,14.452,63.549,7.128,8.343,15.138,15.937,22.835,23.786,8.972,9.149,17.125,18.864,22.422,30.7.364.814,1.507,1.807,2.301,1.819,8.587.131,17.177.082,26.08.082,0-10.531.165-20.623-.092-30.704-.087-3.42-2.62-5.286-6.104-5.359-3.998-.083-8.001.047-11.998-.052-9.234-.229-16.807-7.212-17.683-16.208-.883-9.071,5.091-17.375,14.193-19.264,2.892-.6,5.959-.475,8.946-.482,17.748-.039,35.497-.01,53.245-.026,4.436-.004,7.001-1.834,7.474-5.211.539-3.848-2.395-6.758-7.024-6.769-14.998-.038-29.997-.005-44.996-.018-12.665-.011-19.894-7.309-19.909-20.071-.006-5.207-.001-10.415-.001-15.771h-64.144Zm242.772,40.907c-7.319,6.337-15.331,8.659-24.493,5.536-9.081-3.096-14.04-9.886-16.021-18.321-2.255,8.368-4.577,16.985-6.872,25.505,26.869.653,41.313,20.863,42.641,39.099,1.451,19.919-11.618,38.437-30.656,43.566-9.909,2.67-19.598,1.999-28.847-2.399-13.532-6.435-21.26-17.473-24.165-32.567-6.801,7.338-12.082,14.831-15.45,23.552-.366.948-.115,2.45.412,3.374,2.313,4.057,3.455,8.244,2.435,12.917-.163.746-.089,1.86.364,2.371,2.279,2.575,4.72,5.007,7.115,7.499,8.129-7.102,16.707-9.184,26.204-5.238,9.599,3.988,14.155,11.699,14.913,22.046,2.077,0,3.933,0,5.789,0,1.958,0,3.915,0,5.818,0,2.282-22.288,21.01-29.969,40.45-17.601,2.89-2.694,5.677-5.291,8.52-7.941-6.627-7.659-8.783-16.224-4.839-25.732,3.985-9.606,11.676-14.179,21.833-14.921v-11.652c-20.312-.66-31.877-24.148-16.963-41.025-2.65-2.612-5.305-5.229-8.186-8.068Zm7.492-128.038c13.1-10.775,21.212-23.776,16.65-41.392-4.016-15.509-14.481-24.808-30.343-27.197-16.246-2.447-27.841,5.729-37.45,17.465,17.081,17.075,34.009,33.996,51.143,51.124Zm-304.003,206.208c-4.907,12.744-9.78,25.26-14.457,37.85-.317.852.556,2.53,1.358,3.354,6.093,6.256,12.364,12.339,18.442,18.61,1.572,1.622,2.875,1.77,4.888.939,5.754-2.376,11.605-4.519,17.413-6.765,6.338-2.451,12.671-4.916,18.954-7.354-15.606-15.618-30.935-30.958-46.598-46.634Zm27.674,9.137c14.347-14.355,28.864-28.878,43.235-43.257-6.153-7.177-12.607-14.705-18.77-21.893-14.89,14.875-29.967,29.936-44.801,44.756,6.726,6.746,13.667,13.706,20.336,20.395Zm30.029,30.117c13.809-13.811,27.632-27.635,42.095-42.101-5.983-7.247-12.288-14.883-18.239-22.09-15.151,15.159-29.727,29.744-44.028,44.052,6.579,6.568,13.53,13.508,20.171,20.139Zm222.157-60.517c.115-19.019-14.409-32.995-31.652-31.795-3.263.227-7.184,1.222-9.467,3.317-5.768,5.292-10.821,11.371-16.049,17.235-1.013,1.137-1.935,2.655-2.189,4.12-2.015,11.599,1.681,21.313,10.805,28.542,9.644,7.641,20.514,8.879,31.621,3.502,10.972-5.312,16.293-14.587,16.931-24.921Zm-53.529-208.192c-10.454,10.384-20.921,20.78-30.976,30.768,7.871,5.284,16.209,10.882,23.965,16.089,9.022-8.877,18.229-17.935,27.162-26.723-6.82-6.815-13.771-13.76-20.15-20.134Zm2.678,56.422c5.559,8.327,11.14,16.686,16.494,24.706,10.223-10.216,20.686-20.671,30.861-30.838-6.781-6.787-13.79-13.803-20.599-20.617-8.827,8.825-17.899,17.895-26.756,26.75Zm65.431-23.641c-17.184-17.183-34.185-34.182-50.79-50.787-2.675,2.517-5.735,5.396-8.46,7.96,17.026,17.007,34.036,33.996,50.87,50.812,2.75-2.62,5.791-5.518,8.38-7.985Zm-146.522,209.442c-9.499,0-18.998-.017-28.497.007-4.749.012-7.484,2.217-7.509,5.954-.025,3.743,2.728,6.028,7.434,6.033,18.998.02,37.996.019,56.993,0,4.735-.004,7.488-2.233,7.512-5.96.024-3.742-2.73-6.014-7.438-6.027-9.499-.026-18.998-.008-28.497-.008Zm-.338,36.002c9.624,0,19.248.02,28.872-.009,4.678-.014,7.452-2.333,7.401-6.069-.051-3.726-2.789-5.914-7.548-5.918-18.998-.016-37.996-.019-56.993.002-4.7.005-7.448,2.309-7.398,6.064.049,3.731,2.782,5.911,7.545,5.923,9.374.023,18.748.007,28.122.007Zm-20.781,12.165c5.779,8.193,13.022,12.191,22.339,11.725,8.31-.416,14.805-4.284,19.698-11.725h-42.037Zm-146.895-8.687c-1.838,4.783-3.91,9.726-5.568,14.805-.408,1.25.074,3.406.98,4.298.912.898,3.062,1.352,4.323.94,5.076-1.658,10.019-3.727,14.738-5.54-4.768-4.778-9.501-9.521-14.473-14.504Z"/><path fill="#ffffff" d="m390.901,323.558c9.937.078,17.985,8.36,17.818,18.337-.163,9.763-8.349,17.716-18.154,17.636-9.931-.081-17.981-8.37-17.816-18.345.161-9.763,8.34-17.705,18.152-17.628Zm5.803,18.277c.165-3.229-2.435-6.098-5.678-6.263-3.231-.164-6.096,2.434-6.261,5.677-.165,3.228,2.436,6.099,5.676,6.266,3.221.166,6.098-2.443,6.264-5.681Z"/></svg>