<?xml version="1.0" encoding="utf-8"?>
<!-- Generator: Adobe Illustrator 27.3.1, SVG Export Plug-In . SVG Version: 6.00 Build 0)  -->
<svg version="1.1" id="Capa_1" xmlns="http://www.w3.org/2000/svg" xmlns:xlink="http://www.w3.org/1999/xlink" x="0px" y="0px"
	 viewBox="0 0 1920 1920" style="enable-background:new 0 0 1920 1920;" xml:space="preserve">
<style type="text/css">
	.st0{fill:#FFFFFF;stroke:#FFFFFF;stroke-width:25.512;stroke-miterlimit:10;}
	.st1{fill:#FFFFFF;}
</style>
<g>
	<path class="st0" d="M664.3,888.4c-38.3,0-67.2-28.9-67.2-67.2V550.5c0-38.2,28.9-67,67.2-67c67.1,0,123.4,12,167.4,35.6
		c64.8,34.8,99,92.5,99,166.7s-34.2,132-98.9,166.7C787.7,876.4,731.4,888.4,664.3,888.4z M735.7,685.9c0.4,0.1,0.7,0.2,1.1,0.2
		l0.1-0.5C736.5,685.7,736.1,685.8,735.7,685.9L735.7,685.9z M724.1,678.9L724.1,678.9L724.1,678.9z"/>
	<path class="st0" d="M1072.7,867.7H901.4c-38.1,0-66.8-28.8-66.8-67V552.2c0-38.3,28.7-67.2,66.8-67.2h171.4
		c38,0,66.6,28.9,66.6,67.2V602c0,19.9-7.8,37.3-20.6,49.3c0,0.5,0,1.1,0,1.6v48.5c12.8,12.1,20.6,29.5,20.6,49.5v49.8
		C1139.3,838.8,1110.7,867.7,1072.7,867.7L1072.7,867.7z"/>
	<path class="st0" d="M1203.8,884.5c-26.7,0-53.8-6-80.7-17.7c-0.1,0-0.2-0.1-0.3-0.1c-29.3-13-52.6-30.5-69.3-52
		c-9.6-12.1-14.6-26.5-14.6-41.8c0-16.6,6-32.4,16.9-44.5l14.5-16.5c-24-29.9-28.9-62.3-28.9-83.9c0-30.8,11.3-74.7,65.2-109.6
		c32.4-20.9,67.5-31.4,104.2-31.4c26.6,0,53.7,5.8,80.5,17.3c29.9,12.7,53.6,30.4,70.6,52.6c0.1,0.1,0.2,0.3,0.3,0.4
		c8.9,11.9,13.7,26,13.7,40.6c0,16.2-5.7,31.7-16,43.7l-16.6,19.4c24.1,28.4,30.1,59,30.1,82.4c0,50.1-22.5,91.1-63.2,115.6
		C1282.3,876,1246.5,884.5,1203.8,884.5L1203.8,884.5z M1140.4,805.2C1140.4,805.2,1140.4,805.2,1140.4,805.2
		C1140.4,805.2,1140.4,805.2,1140.4,805.2z M1124.5,766.9L1124.5,766.9L1124.5,766.9z M1230.5,617.6
		C1230.5,617.6,1230.5,617.6,1230.5,617.6C1230.5,617.6,1230.5,617.6,1230.5,617.6z M1292.3,607L1292.3,607L1292.3,607z
		 M1273.2,567.5C1273.2,567.5,1273.2,567.6,1273.2,567.5L1273.2,567.5z"/>
	<path class="st0" d="M786.7,1204.4c-12.8,0-25.1-3.6-35.7-10.2c-7.4,3-13.7,4-16.6,4.4c-0.6,0.1-1.2,0.1-1.8,0.2
		c-3.8,0.3-9.6,0.9-17.3,1.7c-21.4,2.7-35.3,3.9-44.9,3.9c-53.2,0-78.1-34.9-78.6-67.4c0-0.2,0-0.5,0-0.7l-1.1-255.8
		c0-0.1,0-0.2,0-0.2c0-28.5,17.6-53.3,44.8-63.2c16.5-6,39.7-8.5,79.9-8.5c69.5,0,122.1,19.7,156.3,58.5
		c25.4,28.9,38.8,64.6,38.8,103.4c0,32.5-8.5,62.2-25,87.8l26.4,35.6c0.3,0.4,0.6,0.8,0.8,1.1c8.3,11.8,12.7,25.3,12.7,39.1
		c0,36.7-27.6,65.4-64.2,67l-71.6,3.2c-0.2,0-0.4,0-0.6,0C788.2,1204.4,787.5,1204.4,786.7,1204.4L786.7,1204.4z M681.3,1119.1
		L681.3,1119.1L681.3,1119.1z M730,1009.1L730,1009.1L730,1009.1z M724.3,957.8c-6,2.7-14.4,13-14.4,23.8
		c0,13.2,11.7,25.4,19.7,27.5l3-18.2L724.3,957.8L724.3,957.8z M672.8,925L672.8,925z"/>
	<path class="st0" d="M900.2,1211.7c-38.3,0-67.2-28.9-67.2-67.2V873.7c0-38.2,28.9-67,67.2-67c67.1,0,123.4,12,167.4,35.6
		c64.8,34.8,99,92.5,99,166.7s-34.2,132-98.9,166.7C1023.6,1199.6,967.2,1211.7,900.2,1211.7L900.2,1211.7z M971.6,1009.1
		c0.4,0.1,0.7,0.2,1.1,0.2l0.1-0.5C972.4,1008.9,971.9,1009,971.6,1009.1L971.6,1009.1z"/>
	<path class="st0" d="M1308.5,1190.9h-171.3c-38.1,0-66.8-28.8-66.8-67V875.4c0-38.3,28.7-67.2,66.8-67.2h171.4
		c38,0,66.6,28.9,66.6,67.2v49.8c0,19.9-7.8,37.3-20.6,49.3c0,0.5,0,1.1,0,1.6v48.5c12.8,12.1,20.6,29.5,20.6,49.5v49.8
		C1375.2,1162.1,1346.5,1190.9,1308.5,1190.9L1308.5,1190.9z"/>
	<path class="st0" d="M417.4,1205.4c-80.2,0-145-26.2-192.7-77.8c-45.5-49.1-68.5-114-68.5-192.9c0-77,23.6-142.8,70.3-195.7
		c50-56.6,115.4-85.3,194.4-85.3c73.9,0,136.9,33.6,182.3,97.1c38.3,53.4,57.7,115.9,57.7,185.6s-21.2,130.7-63.1,182
		C551.2,1175.3,488.8,1205.4,417.4,1205.4L417.4,1205.4z M420.9,767.9c-46.1,0-80.6,14.8-108.8,46.7
		c-28.1,31.8-41.7,71.1-41.7,120.1c0,49.9,12.5,87.6,38.2,115.4c25.5,27.7,61.1,41.1,108.8,41.1c37.5,0,66.7-14.3,91.9-45.1
		c25.1-30.7,37.3-66.6,37.3-109.7c0-46-11.9-85-36.4-119.2C486.2,783.5,457.8,767.9,420.9,767.9L420.9,767.9z M410.8,1081.6
		c-39.1,0-73.3-19.3-96.5-54.4c-17.2-26.2-25.8-55.6-25.8-87.7c0-32.3,8.6-61.8,25.7-87.8c23.2-35.2,57.5-54.5,96.6-54.5
		c38.8,0,73,19,96.4,53.5c0.1,0.2,0.3,0.4,0.4,0.6c17.3,26.3,26.1,55.9,26.1,88.2c0,32.1-8.8,61.7-26.1,88c-0.1,0.2-0.3,0.4-0.4,0.6
		C483.8,1062.6,449.6,1081.6,410.8,1081.6L410.8,1081.6z M459.9,996.1L459.9,996.1L459.9,996.1z M411,912.6
		c-0.4,0.5-0.9,1.1-1.4,1.9c-4.7,7.2-6.9,15.2-6.9,25.1c0,9.7,2.2,17.7,7,25c0.5,0.7,0.9,1.3,1.2,1.8c0.4-0.5,0.9-1.1,1.4-1.9
		c4.8-7.4,7-15.3,7-24.8c0-9.7-2.2-17.7-7-25.1C411.9,913.7,411.4,913.1,411,912.6L411,912.6z"/>
	<path class="st0" d="M1398.7,1208c-20.5,0-37.2-3.3-51-10.2c-25.2-12.5-40.3-36.4-40.3-63.8V753.6c0-29.3,16.7-54.2,44.6-66.7
		c15-6.7,32.8-9.9,56-9.9c7.2,0,22.5,0.5,76.7,4.4c21.5,1.5,40.3,11.7,52.7,28.1c7.4-9.5,17.3-17.3,29.4-22.8
		c14.8-6.7,32.3-9.8,55-9.8c7.4,0,23.1,0.4,73.4,3.9c40.4,2.5,69.2,33.1,68.6,73l-3.4,377c-0.2,39.7-29,69.7-68.8,71.4l-96.7,4
		c-26,1.3-49.4-10.8-63.2-32.2c-11.8,15.5-30.2,25.8-52.1,28c-0.2,0-0.5,0-0.7,0.1C1409.1,1208,1402.6,1208,1398.7,1208L1398.7,1208
		z M1421.6,791.7v300.5c3.1-0.2,6.6-0.5,10.5-0.8l1.3-140.2c0.3-26.7,19-49.6,45-55.3c7-1.5,14-1.7,20.7-0.6l-46.9-101.6
		C1438.1,792.6,1428.3,792,1421.6,791.7L1421.6,791.7z M1571.3,990l46.9,100.9l28.4-1.2l2.7-297.5c-4.9-0.3-8.9-0.5-12.3-0.7v141.9
		c0,26.8-18.7,50-44.8,55.8C1585.1,990.9,1578,991.1,1571.3,990L1571.3,990z"/>
	<path class="st0" d="M744.5,1435.2c-41.8,0-78.4-13.8-105.8-39.9c-28.5-27.3-43.5-64.2-43.5-107c0-64.6,30.8-102,56.6-122
		c31.1-24,70.8-36.2,117.9-36.2c30.9,0,56.9,19.3,64.5,47.9c0.5,1.8,0.9,3.5,1.2,5.3c0.5,2.8,1.1,6.8,2,12.2
		c4.8,24.1,5.7,32.5,5.7,39.5c0,13-2.9,24.2-7.8,33.6c8.7,8.7,14.8,20,17.3,33.1l7.8,39.9c0.7,3.6,1.1,7.3,1.1,11v0.7
		c0,14.5-5,28.7-14,39.9c-0.3,0.4-0.6,0.7-0.9,1.1c-12.7,15.1-30.8,26.4-53.5,33.6c-0.2,0.1-0.5,0.1-0.7,0.2
		C776.8,1432.8,760.7,1435.2,744.5,1435.2z"/>
	<path class="st0" d="M909.6,1436.5c-8.8,0-17.4-1.8-25.2-5.2c-2.3,0.5-4.5,0.9-6.8,1.2c-0.6,0.1-1.2,0.1-1.7,0.2
		c-2.4,0.2-6,0.6-10.8,1.1c-14.8,1.9-24.6,2.7-31.7,2.7c-46.1,0-70.7-32-71.2-63.5c0-0.2,0-0.5,0-0.7l-0.7-167.9c0-0.1,0-0.2,0-0.3
		c0-27.1,16.6-50.5,42.3-59.9c13.3-4.9,29.9-6.8,59.1-6.8c51.5,0,91,15.2,117.3,45c19.9,22.6,30.3,50.5,30.3,80.9
		c0,20.3-4.3,39.2-12.6,56.2l9.7,13.1c0.3,0.4,0.6,0.8,0.8,1.1c7.8,11,11.9,23.8,11.9,37c0,34.8-26.2,62.1-60.9,63.6l-47,2.1
		c-0.2,0-0.4,0-0.7,0C911,1436.5,910.3,1436.5,909.6,1436.5L909.6,1436.5z"/>
	<path class="st0" d="M1091.2,1427.7H978.8c-35.6,0-63.5-27.9-63.5-63.6V1201c0-35.7,27.9-63.7,63.5-63.7h112.5
		c35.5,0,63.3,28,63.3,63.7v32.7c0,15.1-5,28.9-13.5,39.7v18.2c8.5,10.8,13.5,24.6,13.5,39.8v32.7
		C1154.6,1399.7,1126.7,1427.7,1091.2,1427.7L1091.2,1427.7z"/>
	<path class="st0" d="M1176.3,1434.7c-1,0-2,0-3-0.1l-45.9-2c-32-1.4-57.4-25.4-60.4-57.1l-15.9-163.8c-0.2-1.8-0.3-3.7-0.3-5.5
		c0-35.7,27.9-63.7,63.6-63.7h39.2c17.5,0,33.1,6.5,44.4,17.5h7.8c12.2-12.4,29.6-19.4,49-18.3l39.3,2.1
		c34.4,1.7,60.3,28.6,60.3,62.8v0.7c0,1.5-0.1,3-0.2,4.5l-12.9,162.4c-2.4,32.6-27.9,57.1-60.8,58.5l-48,2
		c-10.6,0.5-20.7-1.6-29.8-5.7C1194.8,1432.6,1185.8,1434.7,1176.3,1434.7L1176.3,1434.7z M1277.8,1355.3
		C1277.8,1355.3,1277.8,1355.3,1277.8,1355.3C1277.8,1355.3,1277.8,1355.3,1277.8,1355.3z M1277.8,1355.2
		C1277.8,1355.2,1277.8,1355.2,1277.8,1355.2C1277.8,1355.2,1277.8,1355.2,1277.8,1355.2z M1128,1354.9c0,0,0,0.1,0,0.1
		C1128,1354.9,1128,1354.9,1128,1354.9z M1297.4,1207.2L1297.4,1207.2L1297.4,1207.2z"/>
	<path d="M664.3,888.4c-38.3,0-67.2-28.9-67.2-67.2V550.5c0-38.2,28.9-67,67.2-67c67.1,0,123.4,12,167.4,35.6
		c64.8,34.8,99,92.5,99,166.7s-34.2,132-98.9,166.7C787.7,876.4,731.4,888.4,664.3,888.4z M735.7,685.9c0.4,0.1,0.7,0.2,1.1,0.2
		l0.1-0.5C736.5,685.7,736.1,685.8,735.7,685.9L735.7,685.9z M724.1,678.9L724.1,678.9L724.1,678.9z"/>
	<path d="M1072.7,867.7H901.4c-38.1,0-66.8-28.8-66.8-67V552.2c0-38.3,28.7-67.2,66.8-67.2h171.4c38,0,66.6,28.9,66.6,67.2V602
		c0,19.9-7.8,37.3-20.6,49.3c0,0.5,0,1.1,0,1.6v48.5c12.8,12.1,20.6,29.5,20.6,49.5v49.8C1139.3,838.8,1110.7,867.7,1072.7,867.7
		L1072.7,867.7z"/>
	<path d="M1203.8,884.5c-26.7,0-53.8-6-80.7-17.7c-0.1,0-0.2-0.1-0.3-0.1c-29.3-13-52.6-30.5-69.3-52c-9.6-12.1-14.6-26.5-14.6-41.8
		c0-16.6,6-32.4,16.9-44.5l14.5-16.5c-24-29.9-28.9-62.3-28.9-83.9c0-30.8,11.3-74.7,65.2-109.6c32.4-20.9,67.5-31.4,104.2-31.4
		c26.6,0,53.7,5.8,80.5,17.3c29.9,12.7,53.6,30.4,70.6,52.6c0.1,0.1,0.2,0.3,0.3,0.4c8.9,11.9,13.7,26,13.7,40.6
		c0,16.2-5.7,31.7-16,43.7l-16.6,19.4c24.1,28.4,30.1,59,30.1,82.4c0,50.1-22.5,91.1-63.2,115.6
		C1282.3,876,1246.5,884.5,1203.8,884.5L1203.8,884.5z M1140.4,805.2C1140.4,805.2,1140.4,805.2,1140.4,805.2
		C1140.4,805.2,1140.4,805.2,1140.4,805.2z M1124.5,766.9L1124.5,766.9L1124.5,766.9z M1230.5,617.6
		C1230.5,617.6,1230.5,617.6,1230.5,617.6C1230.5,617.6,1230.5,617.6,1230.5,617.6z M1292.3,607L1292.3,607L1292.3,607z
		 M1273.2,567.5C1273.2,567.5,1273.2,567.6,1273.2,567.5L1273.2,567.5z"/>
	<path d="M786.7,1204.4c-12.8,0-25.1-3.6-35.7-10.2c-7.4,3-13.7,4-16.6,4.4c-0.6,0.1-1.2,0.1-1.8,0.2c-3.8,0.3-9.6,0.9-17.3,1.7
		c-21.4,2.7-35.3,3.9-44.9,3.9c-53.2,0-78.1-34.9-78.6-67.4c0-0.2,0-0.5,0-0.7l-1.1-255.8c0-0.1,0-0.2,0-0.2
		c0-28.5,17.6-53.3,44.8-63.2c16.5-6,39.7-8.5,79.9-8.5c69.5,0,122.1,19.7,156.3,58.5c25.4,28.9,38.8,64.6,38.8,103.4
		c0,32.5-8.5,62.2-25,87.8l26.4,35.6c0.3,0.4,0.6,0.8,0.8,1.1c8.3,11.8,12.7,25.3,12.7,39.1c0,36.7-27.6,65.4-64.2,67l-71.6,3.2
		c-0.2,0-0.4,0-0.6,0C788.2,1204.4,787.5,1204.4,786.7,1204.4L786.7,1204.4z M681.3,1119.1L681.3,1119.1L681.3,1119.1z M730,1009.1
		L730,1009.1L730,1009.1z M724.3,957.8c-6,2.7-14.4,13-14.4,23.8c0,13.2,11.7,25.4,19.7,27.5l3-18.2L724.3,957.8L724.3,957.8z
		 M672.8,925L672.8,925z"/>
	<path d="M900.2,1211.7c-38.3,0-67.2-28.9-67.2-67.2V873.7c0-38.2,28.9-67,67.2-67c67.1,0,123.4,12,167.4,35.6
		c64.8,34.8,99,92.5,99,166.7s-34.2,132-98.9,166.7C1023.6,1199.6,967.2,1211.7,900.2,1211.7L900.2,1211.7z M971.6,1009.1
		c0.4,0.1,0.7,0.2,1.1,0.2l0.1-0.5C972.4,1008.9,971.9,1009,971.6,1009.1L971.6,1009.1z"/>
	<path d="M1308.5,1190.9h-171.3c-38.1,0-66.8-28.8-66.8-67V875.4c0-38.3,28.7-67.2,66.8-67.2h171.4c38,0,66.6,28.9,66.6,67.2v49.8
		c0,19.9-7.8,37.3-20.6,49.3c0,0.5,0,1.1,0,1.6v48.5c12.8,12.1,20.6,29.5,20.6,49.5v49.8C1375.2,1162.1,1346.5,1190.9,1308.5,1190.9
		L1308.5,1190.9z"/>
	<path d="M417.4,1205.4c-80.2,0-145-26.2-192.7-77.8c-45.5-49.1-68.5-114-68.5-192.9c0-77,23.6-142.8,70.3-195.7
		c50-56.6,115.4-85.3,194.4-85.3c73.9,0,136.9,33.6,182.3,97.1c38.3,53.4,57.7,115.9,57.7,185.6s-21.2,130.7-63.1,182
		C551.2,1175.3,488.8,1205.4,417.4,1205.4L417.4,1205.4z M420.9,767.9c-46.1,0-80.6,14.8-108.8,46.7
		c-28.1,31.8-41.7,71.1-41.7,120.1c0,49.9,12.5,87.6,38.2,115.4c25.5,27.7,61.1,41.1,108.8,41.1c37.5,0,66.7-14.3,91.9-45.1
		c25.1-30.7,37.3-66.6,37.3-109.7c0-46-11.9-85-36.4-119.2C486.2,783.5,457.8,767.9,420.9,767.9L420.9,767.9z M410.8,1081.6
		c-39.1,0-73.3-19.3-96.5-54.4c-17.2-26.2-25.8-55.6-25.8-87.7c0-32.3,8.6-61.8,25.7-87.8c23.2-35.2,57.5-54.5,96.6-54.5
		c38.8,0,73,19,96.4,53.5c0.1,0.2,0.3,0.4,0.4,0.6c17.3,26.3,26.1,55.9,26.1,88.2c0,32.1-8.8,61.7-26.1,88c-0.1,0.2-0.3,0.4-0.4,0.6
		C483.8,1062.6,449.6,1081.6,410.8,1081.6L410.8,1081.6z M459.9,996.1L459.9,996.1L459.9,996.1z M411,912.6
		c-0.4,0.5-0.9,1.1-1.4,1.9c-4.7,7.2-6.9,15.2-6.9,25.1c0,9.7,2.2,17.7,7,25c0.5,0.7,0.9,1.3,1.2,1.8c0.4-0.5,0.9-1.1,1.4-1.9
		c4.8-7.4,7-15.3,7-24.8c0-9.7-2.2-17.7-7-25.1C411.9,913.7,411.4,913.1,411,912.6L411,912.6z"/>
	<path d="M1398.7,1208c-20.5,0-37.2-3.3-51-10.2c-25.2-12.5-40.3-36.4-40.3-63.8V753.6c0-29.3,16.7-54.2,44.6-66.7
		c15-6.7,32.8-9.9,56-9.9c7.2,0,22.5,0.5,76.7,4.4c21.5,1.5,40.3,11.7,52.7,28.1c7.4-9.5,17.3-17.3,29.4-22.8
		c14.8-6.7,32.3-9.8,55-9.8c7.4,0,23.1,0.4,73.4,3.9c40.4,2.5,69.2,33.1,68.6,73l-3.4,377c-0.2,39.7-29,69.7-68.8,71.4l-96.7,4
		c-26,1.3-49.4-10.8-63.2-32.2c-11.8,15.5-30.2,25.8-52.1,28c-0.2,0-0.5,0-0.7,0.1C1409.1,1208,1402.6,1208,1398.7,1208L1398.7,1208
		z M1421.6,791.7v300.5c3.1-0.2,6.6-0.5,10.5-0.8l1.3-140.2c0.3-26.7,19-49.6,45-55.3c7-1.5,14-1.7,20.7-0.6l-46.9-101.6
		C1438.1,792.6,1428.3,792,1421.6,791.7L1421.6,791.7z M1571.3,990l46.9,100.9l28.4-1.2l2.7-297.5c-4.9-0.3-8.9-0.5-12.3-0.7v141.9
		c0,26.8-18.7,50-44.8,55.8C1585.1,990.9,1578,991.1,1571.3,990L1571.3,990z"/>
	<path d="M744.5,1435.2c-41.8,0-78.4-13.8-105.8-39.9c-28.5-27.3-43.5-64.2-43.5-107c0-64.6,30.8-102,56.6-122
		c31.1-24,70.8-36.2,117.9-36.2c30.9,0,56.9,19.3,64.5,47.9c0.5,1.8,0.9,3.5,1.2,5.3c0.5,2.8,1.1,6.8,2,12.2
		c4.8,24.1,5.7,32.5,5.7,39.5c0,13-2.9,24.2-7.8,33.6c8.7,8.7,14.8,20,17.3,33.1l7.8,39.9c0.7,3.6,1.1,7.3,1.1,11v0.7
		c0,14.5-5,28.7-14,39.9c-0.3,0.4-0.6,0.7-0.9,1.1c-12.7,15.1-30.8,26.4-53.5,33.6c-0.2,0.1-0.5,0.1-0.7,0.2
		C776.8,1432.8,760.7,1435.2,744.5,1435.2z"/>
	<path d="M909.6,1436.5c-8.8,0-17.4-1.8-25.2-5.2c-2.3,0.5-4.5,0.9-6.8,1.2c-0.6,0.1-1.2,0.1-1.7,0.2c-2.4,0.2-6,0.6-10.8,1.1
		c-14.8,1.9-24.6,2.7-31.7,2.7c-46.1,0-70.7-32-71.2-63.5c0-0.2,0-0.5,0-0.7l-0.7-167.9c0-0.1,0-0.2,0-0.3
		c0-27.1,16.6-50.5,42.3-59.9c13.3-4.9,29.9-6.8,59.1-6.8c51.5,0,91,15.2,117.3,45c19.9,22.6,30.3,50.5,30.3,80.9
		c0,20.3-4.3,39.2-12.6,56.2l9.7,13.1c0.3,0.4,0.6,0.8,0.8,1.1c7.8,11,11.9,23.8,11.9,37c0,34.8-26.2,62.1-60.9,63.6l-47,2.1
		c-0.2,0-0.4,0-0.7,0C911,1436.5,910.3,1436.5,909.6,1436.5L909.6,1436.5z"/>
	<path d="M1091.2,1427.7H978.8c-35.6,0-63.5-27.9-63.5-63.6V1201c0-35.7,27.9-63.7,63.5-63.7h112.5c35.5,0,63.3,28,63.3,63.7v32.7
		c0,15.1-5,28.9-13.5,39.7v18.2c8.5,10.8,13.5,24.6,13.5,39.8v32.7C1154.6,1399.7,1126.7,1427.7,1091.2,1427.7L1091.2,1427.7z"/>
	<path d="M1176.3,1434.7c-1,0-2,0-3-0.1l-45.9-2c-32-1.4-57.4-25.4-60.4-57.1l-15.9-163.8c-0.2-1.8-0.3-3.7-0.3-5.5
		c0-35.7,27.9-63.7,63.6-63.7h39.2c17.5,0,33.1,6.5,44.4,17.5h7.8c12.2-12.4,29.6-19.4,49-18.3l39.3,2.1
		c34.4,1.7,60.3,28.6,60.3,62.8v0.7c0,1.5-0.1,3-0.2,4.5l-12.9,162.4c-2.4,32.6-27.9,57.1-60.8,58.5l-48,2
		c-10.6,0.5-20.7-1.6-29.8-5.7C1194.8,1432.6,1185.8,1434.7,1176.3,1434.7L1176.3,1434.7z M1277.8,1355.3
		C1277.8,1355.3,1277.8,1355.3,1277.8,1355.3C1277.8,1355.3,1277.8,1355.3,1277.8,1355.3z M1277.8,1355.2
		C1277.8,1355.2,1277.8,1355.2,1277.8,1355.2C1277.8,1355.2,1277.8,1355.2,1277.8,1355.2z M1128,1354.9c0,0,0,0.1,0,0.1
		C1128,1354.9,1128,1354.9,1128,1354.9z M1297.4,1207.2L1297.4,1207.2L1297.4,1207.2z"/>
	<path class="st1" d="M875,683.2c0,53.1-23,91.9-68.9,116.5c-35.8,19.3-82.6,29-140.4,29c-6.7,0-10.1-3.4-10.1-10.1V547.9
		c0-6.6,3.4-9.9,10.1-9.9c57.8,0,104.6,9.6,140.4,28.8C852,591.5,875,630.3,875,683.2L875,683.2z M784.6,683.2
		c0-12.5-3.1-24-9.2-34.6c-6.9-12.2-16-19.3-27.3-21.3v112c11.5-1.9,20.7-8.9,27.5-21.2C781.6,707.4,784.6,695.8,784.6,683.2
		L784.6,683.2z"/>
	<path class="st1" d="M1083.6,798c0,6.6-3.2,9.9-9.5,9.9H902.7c-6.5,0-9.7-3.3-9.7-9.9V549.5c0-6.7,3.2-10.1,9.7-10.1H1074
		c6.4,0,9.5,3.4,9.5,10.1v49.8c0,6.6-3.2,9.9-9.6,9.9h-94.7v31.1h74c6.5,0,9.7,3.3,9.7,9.9v50c0,6.6-3.2,9.9-9.7,9.9h-74v27.9h94.8
		c6.3,0,9.5,3.4,9.5,10.1L1083.6,798L1083.6,798z"/>
	<path class="st1" d="M1320.2,595.4c0,2.6-0.8,4.8-2.2,6.6l-42.6,49.8c-2,2.4-4.4,3.6-7.3,3.6c-0.4,0-8.4-4.6-24.1-13.7
		c-15.7-9.1-30.2-13.7-43.6-13.7c-7.6,0-11.4,1.9-11.4,5.8c0,2.4,5.5,5.7,16.5,9.9c38.8,15.2,63.3,26.1,73.4,32.6
		c26,16.9,38.9,38.4,38.9,64.6c0,30.2-11.8,52.4-35.5,66.7c-19.1,11.5-44.8,17.2-77.1,17.2c-18.8,0-38.1-4.3-57.8-12.9
		c-20.8-9.2-36.7-20.9-47.5-35c-1.6-2-2.4-4.2-2.4-6.6c0-2.6,0.8-4.8,2.4-6.6l42.1-47.9c2-2.2,4.6-3.4,7.7-3.4
		c0.6,0,9,4.5,25.1,13.6c16.1,9.1,29.5,13.6,40.1,13.6c9.2,0,13.9-2.4,13.9-7.1c0-3-5.5-6.4-16.5-10.1c-10-3-24.8-7.9-44.6-14.6
		c-45.2-17.2-67.8-44.7-67.8-82.4c0-24.2,13-44.7,39.1-61.6c23.1-14.9,47.5-22.3,73.2-22.3c19,0,38.3,4.2,58,12.7
		c20.8,8.9,36.8,20.5,47.7,34.8C1319.5,591.1,1320.2,593.2,1320.2,595.4L1320.2,595.4z"/>
	<path class="st1" d="M869.7,1131.5c0,6.4-3.2,9.7-9.5,9.9l-71.7,3.2c-3.7,0.1-6.7-1.3-8.8-4.3l-41-54.9c0,3.2,0.2,8.1,0.6,14.5
		c0.4,6.5,0.6,11.3,0.6,14.5c0,15.6-3.6,23.9-10.9,24.7c-4.1,0.4-10.4,1-18.7,1.9c-18.6,2.4-31.4,3.5-38.4,3.5
		c-14.2,0-21.4-3.7-21.5-11.2l-1.1-255.8c0-4.6,2.4-7.8,7.3-9.5c9.1-3.4,29.2-5,60.3-5c52.7,0,90.5,13,113.5,39.1
		c16.3,18.6,24.5,40.5,24.5,65.7c0,34.6-13.8,62.8-41.4,84.6l54.1,72.8C869,1127.5,869.7,1129.5,869.7,1131.5L869.7,1131.5z
		 M768.4,978.9c0-16.1-9.3-25.7-27.9-28.8l-0.7,60.3C758.9,1005.5,768.4,995,768.4,978.9z"/>
	<path class="st1" d="M1110.9,1006.5c0,53.1-23,91.9-68.9,116.5c-35.8,19.3-82.6,29-140.4,29c-6.7,0-10.1-3.4-10.1-10.1V871.1
		c0-6.6,3.4-9.9,10.1-9.9c57.8,0,104.6,9.6,140.4,28.8C1087.9,914.7,1110.9,953.5,1110.9,1006.5L1110.9,1006.5z M1020.4,1006.5
		c0-12.5-3.1-24-9.2-34.6c-6.9-12.2-16-19.3-27.3-21.3v112c11.5-1.9,20.7-8.9,27.5-21.2C1017.4,1030.7,1020.4,1019.1,1020.4,1006.5
		L1020.4,1006.5z"/>
	<path class="st1" d="M1319.4,1121.2c0,6.6-3.2,9.9-9.5,9.9h-171.3c-6.5,0-9.7-3.3-9.7-9.9V872.8c0-6.7,3.2-10.1,9.7-10.1h171.4
		c6.4,0,9.5,3.4,9.5,10.1v49.8c0,6.6-3.2,9.9-9.6,9.9h-94.7v31.1h74c6.5,0,9.7,3.3,9.7,9.9v50c0,6.6-3.2,9.9-9.7,9.9h-74v27.9h94.8
		c6.3,0,9.5,3.4,9.5,10.1L1319.4,1121.2L1319.4,1121.2z"/>
	<path class="st1" d="M605.1,933.8c0,56.3-16.7,104.9-50.2,145.8c-36,44-81.3,66-136.1,66c-63.9,0-114.2-19.8-150.7-59.4
		c-35.6-38.5-53.4-89.9-53.4-154.2c0-63,18.7-115.6,56-157.9c38.8-44,89.4-66,151.6-66c55.7,0,101,24.4,135.8,73.2
		C589.4,825.2,605.1,876,605.1,933.8L605.1,933.8z M477.9,936.9c0-21.1-5.6-40-16.6-56.8c-12.8-18.9-29.2-28.4-49.1-28.4
		s-36.2,9.6-48.8,28.7C352.4,897,347,915.9,347,936.9c0,20.9,5.5,39.6,16.4,56.3c12.6,19.1,28.9,28.7,48.8,28.7s36.3-9.5,49.1-28.4
		C472.3,976.7,477.9,957.8,477.9,936.9L477.9,936.9z"/>
	<path class="st1" d="M1708.1,750.4l-3.4,377.5c0,9.4-4.7,14.3-14.1,14.7l-97,4c-6.5,0.4-11.2-2.6-14.1-8.9L1491.9,949l-1.7,179.4
		c-0.2,8.4-5.2,13.1-14.9,14.1c-44.8,3.8-69.9,5.7-75.2,5.7c-22.8,0-34.2-5.6-34.2-16.9V751c0-13,14.5-19.5,43.5-19.5
		c9,0,33.2,1.4,72.7,4.3c6.1,0.4,10.4,3.3,12.9,8.6l86.2,186.6V750.4c0-12.7,14-19,42-19c10.3,0,33.5,1.2,69.7,3.7
		C1703.2,735.7,1708.2,740.8,1708.1,750.4L1708.1,750.4z"/>
	<path class="st1" d="M805.8,1350.6c0,1.6-0.5,3.1-1.5,4.3c-5.7,6.7-14.6,12-26.9,15.9c-10.4,3.1-20.9,4.7-31.6,4.7
		c-27.4,0-49.5-8.1-66.5-24.2c-17.2-16.5-25.8-38.3-25.8-65.6c0-33.4,11.5-59.1,34.5-76.9c20.9-16.1,48.5-24.2,83-24.2
		c5.2,0,8.4,1.8,9.3,5.5c0.5,2.9,1.2,7.3,2.2,13.2c3.2,16,4.8,25.7,4.8,29.1c0,7-2.3,10.6-7,10.6c-1.1,0-2.9-0.1-5.3-0.2
		c-2.4-0.2-4.1-0.2-5.3-0.2c-16.6,0-29.9,3.1-40.1,9.2c-12.4,7.5-18.6,19-18.6,34.5c0,11,3.4,19.4,10.2,25.2
		c6.4,5.4,15.2,8.1,26.3,8.1c8.5,0,15.9-1.3,22-3.9c6.5-3.4,13-6.8,19.5-10.2c1-0.5,1.8-0.7,2.5-0.7c3.5,0,5.6,1.8,6.3,5.3l7.9,40.1
		L805.8,1350.6L805.8,1350.6z"/>
	<path class="st1" d="M964.5,1368.2c0,4.2-2.1,6.3-6.3,6.5l-47.1,2.1c-2.5,0.1-4.4-0.9-5.8-2.8l-26.9-36c0,2.1,0.1,5.3,0.4,9.5
		c0.2,4.2,0.4,7.4,0.4,9.5c0,10.3-2.4,15.7-7.1,16.2c-2.7,0.2-6.8,0.6-12.3,1.2c-12.2,1.5-20.6,2.3-25.2,2.3
		c-9.3,0-14.1-2.5-14.1-7.4l-0.7-167.9c0-3,1.6-5.1,4.8-6.3c6-2.2,19.2-3.3,39.6-3.3c34.6,0,59.4,8.6,74.5,25.7
		c10.7,12.2,16.1,26.6,16.1,43.1c0,22.7-9.1,41.2-27.2,55.5l35.5,47.8C964,1365.5,964.5,1366.9,964.5,1368.2L964.5,1368.2z
		 M898,1268c0-10.6-6.1-16.9-18.3-18.9l-0.5,39.6C891.8,1285.5,898,1278.6,898,1268L898,1268z"/>
	<path class="st1" d="M1098.8,1361.4c0,4.3-2.1,6.5-6.3,6.5H980.1c-4.3,0-6.4-2.2-6.4-6.5v-163.1c0-4.4,2.1-6.6,6.4-6.6h112.5
		c4.2,0,6.3,2.2,6.3,6.6v32.7c0,4.3-2.1,6.5-6.3,6.5h-62.2v20.4h48.5c4.3,0,6.4,2.2,6.4,6.5v32.8c0,4.3-2.1,6.5-6.4,6.5h-48.6v18.3
		h62.2c4.2,0,6.2,2.2,6.2,6.6L1098.8,1361.4L1098.8,1361.4z"/>
	<path class="st1" d="M1298.8,1204.6l-12.9,162.6c-0.2,3.7-2.3,5.6-6.3,5.8l-48.1,2c-3.4,0.2-5.5-1.2-6.5-4.2l-21.1-60.7l-20.4,60.3
		c-1.1,3.2-3.2,4.7-6.3,4.5l-46.1-2c-3.7-0.2-5.7-2-6-5.5l-15.9-163.8c0-4.4,2.2-6.6,6.5-6.6h39.2c4.1,0,6.3,2,6.6,6.1l5.5,79
		l14-62.7c0.8-3.4,2.9-5,6.4-5h32.7c3.6,0,5.8,1.7,6.5,5l13.4,62.4l6-79.9c0.3-4.3,2.7-6.3,7-6l39.6,2.1c4,0.2,6,2.1,6,5.8V1204.6
		L1298.8,1204.6z"/>
</g>
</svg>
